<mxfile host="app.diagrams.net" modified="2023-05-18T15:23:02.913Z" agent="Mozilla/5.0 (Windows NT 10.0; Win64; x64) AppleWebKit/537.36 (KHTML, like Gecko) Chrome/113.0.0.0 Safari/537.36" etag="NyNDhIe_4lbyjBx_bZKg" version="21.2.9" type="google">
  <diagram name="Page-1" id="vJAoMslASA4cCm4riCkp">
    <mxGraphModel grid="1" page="1" gridSize="10" guides="1" tooltips="1" connect="1" arrows="1" fold="1" pageScale="1" pageWidth="850" pageHeight="1100" math="0" shadow="0">
      <root>
        <mxCell id="0" />
        <mxCell id="1" parent="0" />
        <mxCell id="XcMbvcTT8KdEOJD6XFSJ-6" value="Empresa" style="swimlane;fontStyle=1;align=center;verticalAlign=top;childLayout=stackLayout;horizontal=1;startSize=26;horizontalStack=0;resizeParent=1;resizeParentMax=0;resizeLast=0;collapsible=1;marginBottom=0;whiteSpace=wrap;html=1;" vertex="1" parent="1">
          <mxGeometry x="70" y="400" width="160" height="86" as="geometry" />
        </mxCell>
        <mxCell id="XcMbvcTT8KdEOJD6XFSJ-7" value="CNPJ" style="text;strokeColor=none;fillColor=none;align=left;verticalAlign=top;spacingLeft=4;spacingRight=4;overflow=hidden;rotatable=0;points=[[0,0.5],[1,0.5]];portConstraint=eastwest;whiteSpace=wrap;html=1;" vertex="1" parent="XcMbvcTT8KdEOJD6XFSJ-6">
          <mxGeometry y="26" width="160" height="26" as="geometry" />
        </mxCell>
        <mxCell id="XcMbvcTT8KdEOJD6XFSJ-8" value="" style="line;strokeWidth=1;fillColor=none;align=left;verticalAlign=middle;spacingTop=-1;spacingLeft=3;spacingRight=3;rotatable=0;labelPosition=right;points=[];portConstraint=eastwest;strokeColor=inherit;" vertex="1" parent="XcMbvcTT8KdEOJD6XFSJ-6">
          <mxGeometry y="52" width="160" height="8" as="geometry" />
        </mxCell>
        <mxCell id="XcMbvcTT8KdEOJD6XFSJ-9" value="solicitar credito" style="text;strokeColor=none;fillColor=none;align=left;verticalAlign=top;spacingLeft=4;spacingRight=4;overflow=hidden;rotatable=0;points=[[0,0.5],[1,0.5]];portConstraint=eastwest;whiteSpace=wrap;html=1;" vertex="1" parent="XcMbvcTT8KdEOJD6XFSJ-6">
          <mxGeometry y="60" width="160" height="26" as="geometry" />
        </mxCell>
        <mxCell id="XcMbvcTT8KdEOJD6XFSJ-10" value="Gerente" style="swimlane;fontStyle=1;align=center;verticalAlign=top;childLayout=stackLayout;horizontal=1;startSize=26;horizontalStack=0;resizeParent=1;resizeParentMax=0;resizeLast=0;collapsible=1;marginBottom=0;whiteSpace=wrap;html=1;" vertex="1" parent="1">
          <mxGeometry x="610" y="160" width="170" height="110" as="geometry" />
        </mxCell>
        <mxCell id="XcMbvcTT8KdEOJD6XFSJ-11" value="ID&lt;br&gt;pedidos de credito: arquivo" style="text;strokeColor=none;fillColor=none;align=left;verticalAlign=top;spacingLeft=4;spacingRight=4;overflow=hidden;rotatable=0;points=[[0,0.5],[1,0.5]];portConstraint=eastwest;whiteSpace=wrap;html=1;" vertex="1" parent="XcMbvcTT8KdEOJD6XFSJ-10">
          <mxGeometry y="26" width="170" height="44" as="geometry" />
        </mxCell>
        <mxCell id="XcMbvcTT8KdEOJD6XFSJ-12" value="" style="line;strokeWidth=1;fillColor=none;align=left;verticalAlign=middle;spacingTop=-1;spacingLeft=3;spacingRight=3;rotatable=0;labelPosition=right;points=[];portConstraint=eastwest;strokeColor=inherit;" vertex="1" parent="XcMbvcTT8KdEOJD6XFSJ-10">
          <mxGeometry y="70" width="170" height="10" as="geometry" />
        </mxCell>
        <mxCell id="XcMbvcTT8KdEOJD6XFSJ-13" value="ver pedidos" style="text;strokeColor=none;fillColor=none;align=left;verticalAlign=top;spacingLeft=4;spacingRight=4;overflow=hidden;rotatable=0;points=[[0,0.5],[1,0.5]];portConstraint=eastwest;whiteSpace=wrap;html=1;" vertex="1" parent="XcMbvcTT8KdEOJD6XFSJ-10">
          <mxGeometry y="80" width="170" height="30" as="geometry" />
        </mxCell>
        <mxCell id="XcMbvcTT8KdEOJD6XFSJ-14" value="Pessoa" style="swimlane;fontStyle=1;align=center;verticalAlign=top;childLayout=stackLayout;horizontal=1;startSize=26;horizontalStack=0;resizeParent=1;resizeParentMax=0;resizeLast=0;collapsible=1;marginBottom=0;whiteSpace=wrap;html=1;" vertex="1" parent="1">
          <mxGeometry x="80" y="128" width="160" height="210" as="geometry" />
        </mxCell>
        <mxCell id="XcMbvcTT8KdEOJD6XFSJ-15" value="nome&lt;br&gt;endereço&lt;br&gt;telefone&lt;br&gt;senha&lt;br&gt;historico: arquivo" style="text;strokeColor=none;fillColor=none;align=left;verticalAlign=top;spacingLeft=4;spacingRight=4;overflow=hidden;rotatable=0;points=[[0,0.5],[1,0.5]];portConstraint=eastwest;whiteSpace=wrap;html=1;" vertex="1" parent="XcMbvcTT8KdEOJD6XFSJ-14">
          <mxGeometry y="26" width="160" height="84" as="geometry" />
        </mxCell>
        <mxCell id="XcMbvcTT8KdEOJD6XFSJ-16" value="" style="line;strokeWidth=1;fillColor=none;align=left;verticalAlign=middle;spacingTop=-1;spacingLeft=3;spacingRight=3;rotatable=0;labelPosition=right;points=[];portConstraint=eastwest;strokeColor=inherit;" vertex="1" parent="XcMbvcTT8KdEOJD6XFSJ-14">
          <mxGeometry y="110" width="160" height="8" as="geometry" />
        </mxCell>
        <mxCell id="XcMbvcTT8KdEOJD6XFSJ-17" value="solicitar credito&lt;br style=&quot;border-color: var(--border-color);&quot;&gt;pag programado&lt;br style=&quot;border-color: var(--border-color);&quot;&gt;depositar&lt;br style=&quot;border-color: var(--border-color);&quot;&gt;sacar&lt;br style=&quot;border-color: var(--border-color);&quot;&gt;listar operacoes" style="text;strokeColor=none;fillColor=none;align=left;verticalAlign=top;spacingLeft=4;spacingRight=4;overflow=hidden;rotatable=0;points=[[0,0.5],[1,0.5]];portConstraint=eastwest;whiteSpace=wrap;html=1;" vertex="1" parent="XcMbvcTT8KdEOJD6XFSJ-14">
          <mxGeometry y="118" width="160" height="92" as="geometry" />
        </mxCell>
        <mxCell id="XcMbvcTT8KdEOJD6XFSJ-18" value="Banco" style="swimlane;fontStyle=1;align=center;verticalAlign=top;childLayout=stackLayout;horizontal=1;startSize=26;horizontalStack=0;resizeParent=1;resizeParentMax=0;resizeLast=0;collapsible=1;marginBottom=0;whiteSpace=wrap;html=1;" vertex="1" parent="1">
          <mxGeometry x="450" y="380" width="180" height="180" as="geometry" />
        </mxCell>
        <mxCell id="XcMbvcTT8KdEOJD6XFSJ-19" value="pessoa física: []&lt;br&gt;empresas: []&lt;br&gt;Gerente&lt;br&gt;arquivos" style="text;strokeColor=none;fillColor=none;align=left;verticalAlign=top;spacingLeft=4;spacingRight=4;overflow=hidden;rotatable=0;points=[[0,0.5],[1,0.5]];portConstraint=eastwest;whiteSpace=wrap;html=1;" vertex="1" parent="XcMbvcTT8KdEOJD6XFSJ-18">
          <mxGeometry y="26" width="180" height="64" as="geometry" />
        </mxCell>
        <mxCell id="XcMbvcTT8KdEOJD6XFSJ-20" value="" style="line;strokeWidth=1;fillColor=none;align=left;verticalAlign=middle;spacingTop=-1;spacingLeft=3;spacingRight=3;rotatable=0;labelPosition=right;points=[];portConstraint=eastwest;strokeColor=inherit;" vertex="1" parent="XcMbvcTT8KdEOJD6XFSJ-18">
          <mxGeometry y="90" width="180" height="8" as="geometry" />
        </mxCell>
        <mxCell id="XcMbvcTT8KdEOJD6XFSJ-21" value="ver clientes&lt;br&gt;atualizar pagamentos&lt;br&gt;cadastrar&lt;br style=&quot;border-color: var(--border-color);&quot;&gt;remover&lt;br style=&quot;border-color: var(--border-color);&quot;&gt;atualizar dados cliente" style="text;strokeColor=none;fillColor=none;align=left;verticalAlign=top;spacingLeft=4;spacingRight=4;overflow=hidden;rotatable=0;points=[[0,0.5],[1,0.5]];portConstraint=eastwest;whiteSpace=wrap;html=1;" vertex="1" parent="XcMbvcTT8KdEOJD6XFSJ-18">
          <mxGeometry y="98" width="180" height="82" as="geometry" />
        </mxCell>
        <mxCell id="XcMbvcTT8KdEOJD6XFSJ-22" value="Cliente físico" style="swimlane;fontStyle=1;align=center;verticalAlign=top;childLayout=stackLayout;horizontal=1;startSize=26;horizontalStack=0;resizeParent=1;resizeParentMax=0;resizeLast=0;collapsible=1;marginBottom=0;whiteSpace=wrap;html=1;" vertex="1" parent="1">
          <mxGeometry x="330" y="150" width="160" height="86" as="geometry" />
        </mxCell>
        <mxCell id="XcMbvcTT8KdEOJD6XFSJ-23" value="CPF" style="text;strokeColor=none;fillColor=none;align=left;verticalAlign=top;spacingLeft=4;spacingRight=4;overflow=hidden;rotatable=0;points=[[0,0.5],[1,0.5]];portConstraint=eastwest;whiteSpace=wrap;html=1;" vertex="1" parent="XcMbvcTT8KdEOJD6XFSJ-22">
          <mxGeometry y="26" width="160" height="26" as="geometry" />
        </mxCell>
        <mxCell id="XcMbvcTT8KdEOJD6XFSJ-24" value="" style="line;strokeWidth=1;fillColor=none;align=left;verticalAlign=middle;spacingTop=-1;spacingLeft=3;spacingRight=3;rotatable=0;labelPosition=right;points=[];portConstraint=eastwest;strokeColor=inherit;" vertex="1" parent="XcMbvcTT8KdEOJD6XFSJ-22">
          <mxGeometry y="52" width="160" height="8" as="geometry" />
        </mxCell>
        <mxCell id="XcMbvcTT8KdEOJD6XFSJ-25" value="solicitar crédito" style="text;strokeColor=none;fillColor=none;align=left;verticalAlign=top;spacingLeft=4;spacingRight=4;overflow=hidden;rotatable=0;points=[[0,0.5],[1,0.5]];portConstraint=eastwest;whiteSpace=wrap;html=1;" vertex="1" parent="XcMbvcTT8KdEOJD6XFSJ-22">
          <mxGeometry y="60" width="160" height="26" as="geometry" />
        </mxCell>
        <mxCell id="XcMbvcTT8KdEOJD6XFSJ-26" value="" style="html=1;verticalAlign=bottom;endArrow=block;edgeStyle=elbowEdgeStyle;elbow=vertical;curved=0;rounded=0;" edge="1" parent="1">
          <mxGeometry width="80" relative="1" as="geometry">
            <mxPoint x="130" y="340" as="sourcePoint" />
            <mxPoint x="160" y="390" as="targetPoint" />
            <Array as="points">
              <mxPoint x="76" y="360" />
            </Array>
          </mxGeometry>
        </mxCell>
        <mxCell id="XcMbvcTT8KdEOJD6XFSJ-28" value="" style="endArrow=diamondThin;endFill=1;endSize=24;html=1;rounded=0;entryX=0.031;entryY=0.984;entryDx=0;entryDy=0;entryPerimeter=0;exitX=1.015;exitY=-0.162;exitDx=0;exitDy=0;exitPerimeter=0;" edge="1" parent="1" source="XcMbvcTT8KdEOJD6XFSJ-7" target="XcMbvcTT8KdEOJD6XFSJ-19">
          <mxGeometry width="160" relative="1" as="geometry">
            <mxPoint x="200" y="390" as="sourcePoint" />
            <mxPoint x="500" y="400" as="targetPoint" />
          </mxGeometry>
        </mxCell>
        <mxCell id="XcMbvcTT8KdEOJD6XFSJ-29" value="" style="endArrow=diamondThin;endFill=1;endSize=24;html=1;rounded=0;entryX=0.098;entryY=0.014;entryDx=0;entryDy=0;exitX=0.603;exitY=1.069;exitDx=0;exitDy=0;exitPerimeter=0;entryPerimeter=0;" edge="1" parent="1" source="XcMbvcTT8KdEOJD6XFSJ-25" target="XcMbvcTT8KdEOJD6XFSJ-18">
          <mxGeometry width="160" relative="1" as="geometry">
            <mxPoint x="340" y="400" as="sourcePoint" />
            <mxPoint x="500" y="400" as="targetPoint" />
          </mxGeometry>
        </mxCell>
        <mxCell id="XcMbvcTT8KdEOJD6XFSJ-30" value="" style="endArrow=diamondThin;endFill=1;endSize=24;html=1;rounded=0;entryX=0.565;entryY=-0.004;entryDx=0;entryDy=0;entryPerimeter=0;" edge="1" parent="1" source="XcMbvcTT8KdEOJD6XFSJ-13" target="XcMbvcTT8KdEOJD6XFSJ-18">
          <mxGeometry width="160" relative="1" as="geometry">
            <mxPoint x="340" y="400" as="sourcePoint" />
            <mxPoint x="500" y="400" as="targetPoint" />
          </mxGeometry>
        </mxCell>
        <mxCell id="XcMbvcTT8KdEOJD6XFSJ-31" value="" style="html=1;verticalAlign=bottom;endArrow=block;edgeStyle=elbowEdgeStyle;elbow=vertical;curved=0;rounded=0;exitX=1.008;exitY=0.636;exitDx=0;exitDy=0;exitPerimeter=0;entryX=0.01;entryY=1.269;entryDx=0;entryDy=0;entryPerimeter=0;" edge="1" parent="1" source="XcMbvcTT8KdEOJD6XFSJ-15" target="XcMbvcTT8KdEOJD6XFSJ-23">
          <mxGeometry width="80" relative="1" as="geometry">
            <mxPoint x="380" y="400" as="sourcePoint" />
            <mxPoint x="460" y="400" as="targetPoint" />
            <Array as="points">
              <mxPoint x="280" y="209" />
            </Array>
          </mxGeometry>
        </mxCell>
        <mxCell id="XcMbvcTT8KdEOJD6XFSJ-32" value="" style="html=1;verticalAlign=bottom;endArrow=block;edgeStyle=elbowEdgeStyle;elbow=vertical;curved=0;rounded=0;exitX=1.017;exitY=0.093;exitDx=0;exitDy=0;exitPerimeter=0;entryX=-0.029;entryY=0.073;entryDx=0;entryDy=0;entryPerimeter=0;" edge="1" parent="1" source="XcMbvcTT8KdEOJD6XFSJ-17" target="XcMbvcTT8KdEOJD6XFSJ-13">
          <mxGeometry width="80" relative="1" as="geometry">
            <mxPoint x="370" y="390" as="sourcePoint" />
            <mxPoint x="450" y="390" as="targetPoint" />
          </mxGeometry>
        </mxCell>
      </root>
    </mxGraphModel>
  </diagram>
</mxfile>
